<?xml version="1.0" encoding="UTF-8" standalone="no"?>
<!-- Created with Inkscape (http://www.inkscape.org/) -->

<svg
   width="64mm"
   height="64mm"
   viewBox="0 0 64 64"
   version="1.1"
   id="svg5"
   inkscape:version="1.1.1 (3bf5ae0d25, 2021-09-20)"
   sodipodi:docname="logo-inv.svg"
   xmlns:inkscape="http://www.inkscape.org/namespaces/inkscape"
   xmlns:sodipodi="http://sodipodi.sourceforge.net/DTD/sodipodi-0.dtd"
   xmlns="http://www.w3.org/2000/svg"
   xmlns:svg="http://www.w3.org/2000/svg">
  <sodipodi:namedview
     id="namedview7"
     pagecolor="#ffffff"
     bordercolor="#666666"
     borderopacity="1.0"
     inkscape:pageshadow="2"
     inkscape:pageopacity="0.0"
     inkscape:pagecheckerboard="0"
     inkscape:document-units="mm"
     showgrid="false"
     inkscape:zoom="1.4681257"
     inkscape:cx="29.629616"
     inkscape:cy="115.45333"
     inkscape:window-width="1920"
     inkscape:window-height="1009"
     inkscape:window-x="-8"
     inkscape:window-y="-8"
     inkscape:window-maximized="1"
     inkscape:current-layer="layer1"
     width="64mm" />
  <defs
     id="defs2" />
  <g
     inkscape:label="Capa 1"
     inkscape:groupmode="layer"
     id="layer1">
    <path
       id="rect844"
       style="stroke-width:3.77953"
       d="M 0 0 L 0 241.89062 L 241.89062 241.89062 L 241.89062 0 L 0 0 z M 155.41602 49.474609 C 162.33059 49.474609 168.21187 50.591568 173.06055 52.826172 C 177.95137 55.060757 181.17629 57.885646 182.73633 61.300781 C 184.33847 64.673756 185.14062 70.429095 185.14062 78.566406 L 185.14062 82.613281 L 160.41211 82.613281 L 160.41211 75.025391 C 160.41211 71.483769 160.09532 69.227537 159.46289 68.257812 C 158.83046 67.28805 157.77646 66.802734 156.30078 66.802734 C 154.6986 66.802734 153.4761 67.456658 152.63281 68.763672 C 151.83178 70.070704 151.43164 72.052778 151.43164 74.708984 C 151.43164 78.124116 151.89466 80.69517 152.82227 82.423828 C 153.70766 84.152474 156.21772 86.24014 160.34961 88.685547 C 169.66788 94.223447 176.27077 98.962553 180.16406 102.93555 C 186.16818 106.66579 191.4325 110.70175 195.70117 115.05859 L 195.70117 51.625 L 222.32812 51.625 L 222.32812 133.52539 L 238.51758 133.52539 L 238.51758 154.01562 L 205.56836 154.01562 C 204.55907 156.92682 203.18709 159.93237 201.43555 163.01758 C 162.00476 232.47263 -1.106928 155.39165 8.4589844 60.078125 C 8.4589844 60.078125 38.323651 62.35818 74.90625 68.974609 L 74.90625 51.625 L 119.30469 51.625 L 119.30469 72.115234 L 101.5332 72.115234 L 101.5332 74.392578 C 109.90351 76.303107 118.31889 78.431295 126.57617 80.822266 C 126.53951 79.989734 126.51367 79.133771 126.51367 78.25 C 126.51367 70.407824 127.50468 64.674759 129.48633 61.048828 C 131.51011 57.422874 134.75539 54.598031 139.22461 52.574219 C 143.69379 50.50831 149.09166 49.474609 155.41602 49.474609 z M 126.57617 80.822266 C 126.76553 85.1135 127.4363 88.727361 128.60156 91.658203 C 130.0351 95.157668 131.82628 97.897281 133.97656 99.878906 C 136.12681 101.86053 140.51139 105.04482 147.13086 109.42969 C 153.75032 113.77239 157.90338 116.87143 159.58984 118.72656 C 161.23417 120.5817 162.05664 124.52354 162.05664 130.55273 C 162.05664 133.2933 161.61391 135.35862 160.72852 136.75 C 159.88527 138.14138 158.57746 138.83789 156.80664 138.83789 C 155.03586 138.83789 153.79296 138.28959 153.07617 137.19336 C 152.40179 136.09715 152.06445 133.62972 152.06445 129.79297 L 152.06445 117.33398 L 127.33594 117.33398 L 127.33594 124.03906 C 127.33594 131.71259 128.11578 137.63649 129.67578 141.81055 C 131.23578 145.9846 134.52373 149.42077 139.54102 152.11914 C 144.60048 154.81753 150.69293 156.16602 157.81836 156.16602 C 164.31132 156.16602 170.00371 155.00642 174.89453 152.6875 C 179.78532 150.32642 183.0733 147.41826 184.75977 143.96094 C 186.48845 140.50364 187.35352 135.12609 187.35352 127.83203 C 187.35352 117.79742 185.81419 110.52503 182.73633 106.01367 C 182.07926 105.05052 181.22086 104.01395 180.16406 102.93555 C 165.59073 93.881375 146.5944 86.6187 126.57617 80.822266 z M 101.5332 74.392578 C 92.474568 72.324938 83.517892 70.532141 74.90625 68.974609 L 74.90625 154.01562 L 121.07422 154.01562 L 121.07422 133.52539 L 101.5332 133.52539 L 101.5332 111.00977 L 118.16602 111.00977 L 118.16602 91.53125 L 101.5332 91.53125 L 101.5332 74.392578 z M 205.56836 154.01562 C 210.84435 138.7979 206.3405 125.9176 195.70117 115.05859 L 195.70117 154.01562 L 205.56836 154.01562 z "
       transform="scale(0.26458333)" />
  </g>
</svg>
