<?xml version="1.0" encoding="UTF-8" standalone="no"?>
<!-- Created with Inkscape (http://www.inkscape.org/) -->

<svg
   width="64mm"
   height="64mm"
   viewBox="0 0 64 64"
   version="1.1"
   id="svg5"
   inkscape:version="1.1.1 (3bf5ae0d25, 2021-09-20)"
   sodipodi:docname="logo.svg"
   xmlns:inkscape="http://www.inkscape.org/namespaces/inkscape"
   xmlns:sodipodi="http://sodipodi.sourceforge.net/DTD/sodipodi-0.dtd"
   xmlns="http://www.w3.org/2000/svg"
   xmlns:svg="http://www.w3.org/2000/svg">
  <sodipodi:namedview
     id="namedview7"
     pagecolor="#ffffff"
     bordercolor="#666666"
     borderopacity="1.0"
     inkscape:pageshadow="2"
     inkscape:pageopacity="0.0"
     inkscape:pagecheckerboard="0"
     inkscape:document-units="mm"
     showgrid="false"
     inkscape:zoom="1.4681257"
     inkscape:cx="29.629615"
     inkscape:cy="115.45333"
     inkscape:window-width="1920"
     inkscape:window-height="1009"
     inkscape:window-x="-8"
     inkscape:window-y="-8"
     inkscape:window-maximized="1"
     inkscape:current-layer="layer1"
     width="64mm" />
  <defs
     id="defs2" />
  <g
     inkscape:label="Capa 1"
     inkscape:groupmode="layer"
     id="layer1">
    <path
       id="path857"
       style="fill:#7f8fa6;fill-opacity:1;stroke:#000000;stroke-width:0;stroke-linecap:butt;stroke-linejoin:miter;stroke-miterlimit:4;stroke-dasharray:none;stroke-opacity:1"
       d="m 40.759997,13.270354 c -1.673311,0 -3.101204,0.273314 -4.283679,0.819919 -1.182472,0.535467 -2.041441,1.282874 -2.576898,2.242241 -0.524306,0.959361 -0.786459,2.476499 -0.786459,4.551408 0,0.233831 0.007,0.460204 0.01673,0.680478 5.296489,1.53364 10.322666,3.455432 14.178531,5.851015 -1.030096,-1.051188 -2.777582,-2.305289 -5.243039,-3.770525 -1.093232,-0.647014 -1.75698,-1.199207 -1.991242,-1.656578 -0.245425,-0.457374 -0.368129,-1.137854 -0.368129,-2.041441 0,-0.702788 0.105993,-1.227097 0.317934,-1.572916 0.223113,-0.345814 0.546617,-0.518726 0.970522,-0.518726 0.390445,0 0.669328,0.128281 0.836649,0.384864 0.167332,0.256573 0.251003,0.85339 0.251003,1.790444 v 2.007974 h 6.542647 v -1.070923 c 0,-2.152997 -0.211952,-3.67571 -0.635857,-4.568143 -0.412754,-0.903588 -1.266143,-1.651001 -2.560171,-2.242235 -1.282874,-0.591239 -2.839054,-0.886856 -4.668542,-0.886856 z m 6.548229,14.145065 c 0.279606,0.285327 0.506626,0.559515 0.680477,0.81435 0.81435,1.19363 1.22152,3.117939 1.22152,5.772929 0,1.929886 -0.228682,3.352202 -0.686057,4.266944 -0.446215,0.914751 -1.316341,1.684469 -2.610366,2.309172 -1.294028,0.613547 -2.800009,0.92032 -4.517942,0.92032 -1.885267,0 -3.497224,-0.356974 -4.835874,-1.070922 -1.327495,-0.713944 -2.197616,-1.623115 -2.610366,-2.727499 -0.412749,-1.104387 -0.619126,-2.671722 -0.619126,-4.70201 v -1.773711 h 6.542649 v 3.296426 c 0,1.015141 0.08926,1.667736 0.267734,1.957775 0.189642,0.290044 0.518725,0.435066 0.987251,0.435066 0.468525,0 0.814349,-0.184062 1.037451,-0.552197 0.234263,-0.368135 0.351394,-0.91474 0.351394,-1.639847 0,-1.595224 -0.217532,-2.638255 -0.652587,-3.129093 -0.446217,-0.490837 -1.545023,-1.310762 -3.296426,-2.459768 -1.751399,-1.160162 -2.911562,-2.002397 -3.480489,-2.526702 -0.568926,-0.524305 -1.04303,-1.249406 -1.422315,-2.175306 -0.308314,-0.775452 -0.485361,-1.731552 -0.53546,-2.866941 -2.184748,-0.632611 -4.41167,-1.195706 -6.626315,-1.7012 v 4.534677 h 4.400812 v 5.1538 h -4.400812 v 5.956989 h 5.170535 v 5.421534 H 19.458734 V 18.429734 C 9.7795872,16.679137 1.8778006,16.075941 1.8778006,16.075941 -0.65318008,41.294311 42.503406,61.688534 52.936132,43.311884 c 0.463426,-0.816295 0.826185,-1.611426 1.093232,-2.381679 H 51.418996 V 30.622601 c -1.129429,-1.152749 -2.522185,-2.220222 -4.11077,-3.207182 z m 4.11077,3.207182 c 2.814985,2.873113 4.006303,6.281247 2.610368,10.307604 H 62.74732 V 35.508671 H 58.463641 V 13.839281 H 51.418996 Z M 19.458734,18.429734 c 2.278497,0.412097 4.647881,0.886408 7.044645,1.433471 v -0.602394 h 4.702006 v -5.42153 H 19.458734 Z" />
  </g>
</svg>
